<?xml version="1.0" encoding="UTF-8"?>
<svg width="24px" height="24px" viewBox="0 0 24 24" version="1.1" xmlns="http://www.w3.org/2000/svg">
    <g stroke="none" stroke-width="1" fill="none" fill-rule="evenodd">
        <path d="M12,2 C6.48,2 2,6.48 2,12 C2,17.52 6.48,22 12,22 C17.52,22 22,17.52 22,12 C22,6.48 17.52,2 12,2 Z M14.5,15.5 C14.5,16.05 14.05,16.5 13.5,16.5 L10,16.5 L10,18.5 L8.5,18.5 L8.5,16.5 L7,16.5 L7,15.5 L8.5,15.5 L8.5,8.5 L7,8.5 L7,7.5 L8.5,7.5 L8.5,5.5 L10,5.5 L10,7.5 L13.5,7.5 C14.05,7.5 14.5,7.95 14.5,8.5 L14.5,15.5 Z M13.5,14.5 L10,14.5 L10,10.5 L13.5,10.5 L13.5,14.5 Z" fill="#F7931A" fill-rule="nonzero"></path>
    </g>
</svg> 